<?xml version="1.0" encoding="UTF-8"?>
<svg xmlns="http://www.w3.org/2000/svg" width="1366" height="300" viewBox="0 0 1366 300" fill="none">
  <defs>
    <linearGradient id="iconBase" x1="0" y1="0" x2="318" y2="300" gradientUnits="userSpaceOnUse"><stop offset="0" stop-color="#A78BFA"/><stop offset="0.36" stop-color="#6D3BFF"/><stop offset="0.68" stop-color="#F44BD8"/><stop offset="1" stop-color="#FF7A3D"/></linearGradient>
    <linearGradient id="facetPurple" x1="14" y1="6" x2="148" y2="169" gradientUnits="userSpaceOnUse"><stop offset="0" stop-color="#D6C6FF"/><stop offset="0.55" stop-color="#8B5CF6"/><stop offset="1" stop-color="#5534E9"/></linearGradient>
    <linearGradient id="facetBlue" x1="0" y1="126" x2="155" y2="300" gradientUnits="userSpaceOnUse"><stop offset="0" stop-color="#714BFF"/><stop offset="0.54" stop-color="#5042F5"/><stop offset="1" stop-color="#3A2AD6"/></linearGradient>
    <linearGradient id="facetOrange" x1="158" y1="50" x2="318" y2="235" gradientUnits="userSpaceOnUse"><stop offset="0" stop-color="#FF91DD"/><stop offset="0.55" stop-color="#FF5A75"/><stop offset="1" stop-color="#FF8B3D"/></linearGradient>
    <linearGradient id="glass" x1="22" y1="0" x2="240" y2="300" gradientUnits="userSpaceOnUse"><stop offset="0" stop-color="#FFFFFF" stop-opacity="0.56"/><stop offset="0.34" stop-color="#FFFFFF" stop-opacity="0.16"/><stop offset="1" stop-color="#FFFFFF" stop-opacity="0"/></linearGradient>
    <linearGradient id="wordMain" x1="356.0" y1="48" x2="1366" y2="260" gradientUnits="userSpaceOnUse"><stop offset="0" stop-color="#26303A"/><stop offset="0.35" stop-color="#111820"/><stop offset="0.72" stop-color="#070B10"/><stop offset="1" stop-color="#161D28"/></linearGradient>
    <linearGradient id="wordEdge" x1="356.0" y1="40" x2="1366" y2="265" gradientUnits="userSpaceOnUse"><stop offset="0" stop-color="#FFFFFF" stop-opacity="0.38"/><stop offset="0.18" stop-color="#8EA4FF" stop-opacity="0.18"/><stop offset="0.55" stop-color="#FFFFFF" stop-opacity="0.04"/><stop offset="1" stop-color="#826BFF" stop-opacity="0.25"/></linearGradient>
    <radialGradient id="shine" cx="0" cy="0" r="1" gradientUnits="userSpaceOnUse" gradientTransform="translate(58 30) rotate(55) scale(204 88)"><stop stop-color="#FFFFFF" stop-opacity="0.58"/><stop offset="0.52" stop-color="#FFFFFF" stop-opacity="0.12"/><stop offset="1" stop-color="#FFFFFF" stop-opacity="0"/></radialGradient>
    <clipPath id="iconClip"><path d="M68 0C29 0 0 28 0 67V233C0 272 30 300 69 300C92 300 109 293 129 280L299 180C324 165 324 135 299 120L129 20C109 7 92 0 68 0Z"/></clipPath>
  </defs>

  <path d="M68 0C29 0 0 28 0 67V233C0 272 30 300 69 300C92 300 109 293 129 280L299 180C324 165 324 135 299 120L129 20C109 7 92 0 68 0Z" fill="#24146B" opacity="0.13" transform="translate(8 8)"/>
  <g>
    <path d="M68 0C29 0 0 28 0 67V233C0 272 30 300 69 300C92 300 109 293 129 280L299 180C324 165 324 135 299 120L129 20C109 7 92 0 68 0Z" fill="url(#iconBase)"/>
    <g clip-path="url(#iconClip)">
      <path d="M0 0H126L163 149L0 152V0Z" fill="url(#facetPurple)" opacity="0.96"/>
      <path d="M0 150L163 149L126 300H0V150Z" fill="url(#facetBlue)" opacity="0.96"/>
      <path d="M126 0L299 120C324 135 324 165 299 180L126 300L163 149L126 0Z" fill="url(#facetOrange)" opacity="0.92"/>
      <path d="M0 48L163 149L0 252V48Z" fill="#4E33E9" opacity="0.50"/>
      <path d="M126 0L163 149L126 300L54 150L126 0Z" fill="#C857FF" opacity="0.54"/>
      <path d="M163 149L318 100V205L163 149Z" fill="#FF6449" opacity="0.40"/>
      <path d="M0 0H318V300H0V0Z" fill="url(#shine)"/>
      <path d="M12 14C22 5 42 0 66 0H126L156 70C121 54 81 36 39 24C28 21 18 18 12 14Z" fill="#FFFFFF" opacity="0.32"/>
      <path d="M0 237V300H70C92 300 108 293 129 280L233 219C144 258 68 263 0 237Z" fill="#2511B8" opacity="0.20"/>
    </g>
    <path d="M68 2C30 2 2 29 2 67V233C2 270 31 298 69 298C91 298 108 291 128 278L298 178C321 164 321 136 298 122L128 22C108 9 91 2 68 2Z" stroke="#FFFFFF" stroke-opacity="0.38" stroke-width="3"/>
    <path d="M69 299C92 299 109 292 129 279L300 179C313 171 320 160 320 150" stroke="#3A1EDB" stroke-opacity="0.30" stroke-width="3"/>
  </g>

  <g>
    <path d="M 356 86.725 L 397.146 86.725 L 425.687 153.832 L 454.416 86.725 L 495.481 86.725 L 495.481 212.124 L 464.924 212.124 L 464.924 120.399 L 436.034 188.017 L 415.528 188.017 L 386.637 120.399 L 386.637 212.124 L 356 212.124 L 356 86.725 Z M 619.691 164.851 L 619.691 173.397 L 549.413 173.397 Q 550.488 183.986 557.045 189.28 Q 563.603 194.574 575.347 194.574 Q 584.834 194.574 594.778 191.752 Q 604.748 188.931 615.256 183.233 L 615.256 206.399 Q 604.587 210.431 593.918 212.5 Q 583.248 214.569 572.579 214.569 Q 547.048 214.569 532.885 201.589 Q 518.748 188.608 518.748 165.173 Q 518.748 142.168 532.643 128.999 Q 546.537 115.804 570.913 115.804 Q 593.085 115.804 606.388 129.161 Q 619.691 142.491 619.691 164.851 Z M 588.785 154.853 Q 588.785 146.28 583.786 141.039 Q 578.787 135.772 570.725 135.772 Q 561.99 135.772 556.535 140.69 Q 551.079 145.608 549.735 154.853 L 588.785 154.853 Z M 675.285 91.347 L 675.285 118.061 L 706.299 118.061 L 706.299 139.561 L 675.285 139.561 L 675.285 179.444 Q 675.285 186.001 677.892 188.312 Q 680.499 190.624 688.239 190.624 L 703.692 190.624 L 703.692 212.124 L 677.892 212.124 Q 660.101 212.124 652.656 204.706 Q 645.239 197.262 645.239 179.444 L 645.239 139.561 L 630.269 139.561 L 630.269 118.061 L 645.239 118.061 L 645.239 91.347 L 675.285 91.347 Z M 724.691 118.061 L 754.738 118.061 L 754.738 212.124 L 724.691 212.124 L 724.691 118.061 Z M 724.691 81.431 L 754.738 81.431 L 754.738 105.968 L 724.691 105.968 L 724.691 81.431 Z M 857.125 120.991 L 857.125 143.834 Q 847.477 139.803 838.473 137.788 Q 829.497 135.772 821.515 135.772 Q 812.942 135.772 808.777 137.922 Q 804.638 140.072 804.638 144.506 Q 804.638 148.134 807.782 150.069 Q 810.927 151.977 819.07 152.918 L 824.364 153.671 Q 847.477 156.6 855.432 163.319 Q 863.413 170.037 863.413 184.416 Q 863.413 199.439 852.314 207.017 Q 841.242 214.569 819.258 214.569 Q 809.932 214.569 799.962 213.091 Q 790.018 211.613 779.51 208.684 L 779.51 185.84 Q 788.513 190.194 797.946 192.398 Q 807.406 194.574 817.135 194.574 Q 825.977 194.574 830.411 192.156 Q 834.872 189.71 834.872 184.899 Q 834.872 180.868 831.808 178.906 Q 828.745 176.944 819.58 175.843 L 814.286 175.171 Q 794.21 172.644 786.148 165.845 Q 778.085 159.046 778.085 145.178 Q 778.085 130.236 788.325 123.033 Q 798.591 115.804 819.742 115.804 Q 828.073 115.804 837.21 117.067 Q 846.375 118.303 857.125 120.991 Z M 872.4 86.725 L 987.962 86.725 L 987.962 111.181 L 946.387 111.181 L 946.387 212.124 L 914.056 212.124 L 914.056 111.181 L 872.4 111.181 L 872.4 86.725 Z M 1025.308 137.304 Q 1015.311 137.304 1010.07 144.479 Q 1004.83 151.655 1004.83 165.173 Q 1004.83 178.691 1010.07 185.894 Q 1015.311 193.069 1025.308 193.069 Q 1035.145 193.069 1040.332 185.894 Q 1045.545 178.691 1045.545 165.173 Q 1045.545 151.655 1040.332 144.479 Q 1035.145 137.304 1025.308 137.304 Z M 1025.308 115.804 Q 1049.577 115.804 1063.229 128.919 Q 1076.882 142.007 1076.882 165.173 Q 1076.882 188.366 1063.229 201.481 Q 1049.577 214.569 1025.308 214.569 Q 1000.96 214.569 987.227 201.481 Q 973.493 188.366 973.493 165.173 Q 973.493 142.007 987.227 128.919 Q 1000.96 115.804 1025.308 115.804 Z M 1143.474 137.304 Q 1133.477 137.304 1128.236 144.479 Q 1122.996 151.655 1122.996 165.173 Q 1122.996 178.691 1128.236 185.894 Q 1133.477 193.069 1143.474 193.069 Q 1153.311 193.069 1158.498 185.894 Q 1163.711 178.691 1163.711 165.173 Q 1163.711 151.655 1158.498 144.479 Q 1153.311 137.304 1143.474 137.304 Z M 1143.474 115.804 Q 1167.743 115.804 1181.395 128.919 Q 1195.048 142.007 1195.048 165.173 Q 1195.048 188.366 1181.395 201.481 Q 1167.743 214.569 1143.474 214.569 Q 1119.126 214.569 1105.393 201.481 Q 1091.659 188.366 1091.659 165.173 Q 1091.659 142.007 1105.393 128.919 Q 1119.126 115.804 1143.474 115.804 Z M 1216.894 81.431 L 1246.94 81.431 L 1246.94 212.124 L 1216.894 212.124 L 1216.894 81.431 Z M 1349.327 120.991 L 1349.327 143.834 Q 1339.679 139.803 1330.676 137.788 Q 1321.699 135.772 1313.717 135.772 Q 1305.144 135.772 1300.979 137.922 Q 1296.84 140.072 1296.84 144.506 Q 1296.84 148.134 1299.984 150.069 Q 1303.129 151.977 1311.272 152.918 L 1316.566 153.671 Q 1339.679 156.6 1347.634 163.319 Q 1355.616 170.037 1355.616 184.416 Q 1355.616 199.439 1344.516 207.017 Q 1333.444 214.569 1311.46 214.569 Q 1302.134 214.569 1292.164 213.091 Q 1282.22 211.613 1271.712 208.684 L 1271.712 185.84 Q 1280.715 190.194 1290.148 192.398 Q 1299.608 194.574 1309.337 194.574 Q 1318.179 194.574 1322.613 192.156 Q 1327.074 189.71 1327.074 184.899 Q 1327.074 180.868 1324.011 178.906 Q 1320.947 176.944 1311.783 175.843 L 1306.488 175.171 Q 1286.412 172.644 1278.35 165.845 Q 1270.287 159.046 1270.287 145.178 Q 1270.287 130.236 1280.527 123.033 Q 1290.793 115.804 1311.944 115.804 Q 1320.275 115.804 1329.412 117.067 Q 1338.577 118.303 1349.327 120.991 Z" fill="#242938" opacity="0.34" transform="translate(8 8)"/>
    <path d="M 356 86.725 L 397.146 86.725 L 425.687 153.832 L 454.416 86.725 L 495.481 86.725 L 495.481 212.124 L 464.924 212.124 L 464.924 120.399 L 436.034 188.017 L 415.528 188.017 L 386.637 120.399 L 386.637 212.124 L 356 212.124 L 356 86.725 Z M 619.691 164.851 L 619.691 173.397 L 549.413 173.397 Q 550.488 183.986 557.045 189.28 Q 563.603 194.574 575.347 194.574 Q 584.834 194.574 594.778 191.752 Q 604.748 188.931 615.256 183.233 L 615.256 206.399 Q 604.587 210.431 593.918 212.5 Q 583.248 214.569 572.579 214.569 Q 547.048 214.569 532.885 201.589 Q 518.748 188.608 518.748 165.173 Q 518.748 142.168 532.643 128.999 Q 546.537 115.804 570.913 115.804 Q 593.085 115.804 606.388 129.161 Q 619.691 142.491 619.691 164.851 Z M 588.785 154.853 Q 588.785 146.28 583.786 141.039 Q 578.787 135.772 570.725 135.772 Q 561.99 135.772 556.535 140.69 Q 551.079 145.608 549.735 154.853 L 588.785 154.853 Z M 675.285 91.347 L 675.285 118.061 L 706.299 118.061 L 706.299 139.561 L 675.285 139.561 L 675.285 179.444 Q 675.285 186.001 677.892 188.312 Q 680.499 190.624 688.239 190.624 L 703.692 190.624 L 703.692 212.124 L 677.892 212.124 Q 660.101 212.124 652.656 204.706 Q 645.239 197.262 645.239 179.444 L 645.239 139.561 L 630.269 139.561 L 630.269 118.061 L 645.239 118.061 L 645.239 91.347 L 675.285 91.347 Z M 724.691 118.061 L 754.738 118.061 L 754.738 212.124 L 724.691 212.124 L 724.691 118.061 Z M 724.691 81.431 L 754.738 81.431 L 754.738 105.968 L 724.691 105.968 L 724.691 81.431 Z M 857.125 120.991 L 857.125 143.834 Q 847.477 139.803 838.473 137.788 Q 829.497 135.772 821.515 135.772 Q 812.942 135.772 808.777 137.922 Q 804.638 140.072 804.638 144.506 Q 804.638 148.134 807.782 150.069 Q 810.927 151.977 819.07 152.918 L 824.364 153.671 Q 847.477 156.6 855.432 163.319 Q 863.413 170.037 863.413 184.416 Q 863.413 199.439 852.314 207.017 Q 841.242 214.569 819.258 214.569 Q 809.932 214.569 799.962 213.091 Q 790.018 211.613 779.51 208.684 L 779.51 185.84 Q 788.513 190.194 797.946 192.398 Q 807.406 194.574 817.135 194.574 Q 825.977 194.574 830.411 192.156 Q 834.872 189.71 834.872 184.899 Q 834.872 180.868 831.808 178.906 Q 828.745 176.944 819.58 175.843 L 814.286 175.171 Q 794.21 172.644 786.148 165.845 Q 778.085 159.046 778.085 145.178 Q 778.085 130.236 788.325 123.033 Q 798.591 115.804 819.742 115.804 Q 828.073 115.804 837.21 117.067 Q 846.375 118.303 857.125 120.991 Z M 872.4 86.725 L 987.962 86.725 L 987.962 111.181 L 946.387 111.181 L 946.387 212.124 L 914.056 212.124 L 914.056 111.181 L 872.4 111.181 L 872.4 86.725 Z M 1025.308 137.304 Q 1015.311 137.304 1010.07 144.479 Q 1004.83 151.655 1004.83 165.173 Q 1004.83 178.691 1010.07 185.894 Q 1015.311 193.069 1025.308 193.069 Q 1035.145 193.069 1040.332 185.894 Q 1045.545 178.691 1045.545 165.173 Q 1045.545 151.655 1040.332 144.479 Q 1035.145 137.304 1025.308 137.304 Z M 1025.308 115.804 Q 1049.577 115.804 1063.229 128.919 Q 1076.882 142.007 1076.882 165.173 Q 1076.882 188.366 1063.229 201.481 Q 1049.577 214.569 1025.308 214.569 Q 1000.96 214.569 987.227 201.481 Q 973.493 188.366 973.493 165.173 Q 973.493 142.007 987.227 128.919 Q 1000.96 115.804 1025.308 115.804 Z M 1143.474 137.304 Q 1133.477 137.304 1128.236 144.479 Q 1122.996 151.655 1122.996 165.173 Q 1122.996 178.691 1128.236 185.894 Q 1133.477 193.069 1143.474 193.069 Q 1153.311 193.069 1158.498 185.894 Q 1163.711 178.691 1163.711 165.173 Q 1163.711 151.655 1158.498 144.479 Q 1153.311 137.304 1143.474 137.304 Z M 1143.474 115.804 Q 1167.743 115.804 1181.395 128.919 Q 1195.048 142.007 1195.048 165.173 Q 1195.048 188.366 1181.395 201.481 Q 1167.743 214.569 1143.474 214.569 Q 1119.126 214.569 1105.393 201.481 Q 1091.659 188.366 1091.659 165.173 Q 1091.659 142.007 1105.393 128.919 Q 1119.126 115.804 1143.474 115.804 Z M 1216.894 81.431 L 1246.94 81.431 L 1246.94 212.124 L 1216.894 212.124 L 1216.894 81.431 Z M 1349.327 120.991 L 1349.327 143.834 Q 1339.679 139.803 1330.676 137.788 Q 1321.699 135.772 1313.717 135.772 Q 1305.144 135.772 1300.979 137.922 Q 1296.84 140.072 1296.84 144.506 Q 1296.84 148.134 1299.984 150.069 Q 1303.129 151.977 1311.272 152.918 L 1316.566 153.671 Q 1339.679 156.6 1347.634 163.319 Q 1355.616 170.037 1355.616 184.416 Q 1355.616 199.439 1344.516 207.017 Q 1333.444 214.569 1311.46 214.569 Q 1302.134 214.569 1292.164 213.091 Q 1282.22 211.613 1271.712 208.684 L 1271.712 185.84 Q 1280.715 190.194 1290.148 192.398 Q 1299.608 194.574 1309.337 194.574 Q 1318.179 194.574 1322.613 192.156 Q 1327.074 189.71 1327.074 184.899 Q 1327.074 180.868 1324.011 178.906 Q 1320.947 176.944 1311.783 175.843 L 1306.488 175.171 Q 1286.412 172.644 1278.35 165.845 Q 1270.287 159.046 1270.287 145.178 Q 1270.287 130.236 1280.527 123.033 Q 1290.793 115.804 1311.944 115.804 Q 1320.275 115.804 1329.412 117.067 Q 1338.577 118.303 1349.327 120.991 Z" fill="#0A0E14" transform="translate(4 4)" opacity="0.62"/>
    <path d="M 356 86.725 L 397.146 86.725 L 425.687 153.832 L 454.416 86.725 L 495.481 86.725 L 495.481 212.124 L 464.924 212.124 L 464.924 120.399 L 436.034 188.017 L 415.528 188.017 L 386.637 120.399 L 386.637 212.124 L 356 212.124 L 356 86.725 Z M 619.691 164.851 L 619.691 173.397 L 549.413 173.397 Q 550.488 183.986 557.045 189.28 Q 563.603 194.574 575.347 194.574 Q 584.834 194.574 594.778 191.752 Q 604.748 188.931 615.256 183.233 L 615.256 206.399 Q 604.587 210.431 593.918 212.5 Q 583.248 214.569 572.579 214.569 Q 547.048 214.569 532.885 201.589 Q 518.748 188.608 518.748 165.173 Q 518.748 142.168 532.643 128.999 Q 546.537 115.804 570.913 115.804 Q 593.085 115.804 606.388 129.161 Q 619.691 142.491 619.691 164.851 Z M 588.785 154.853 Q 588.785 146.28 583.786 141.039 Q 578.787 135.772 570.725 135.772 Q 561.99 135.772 556.535 140.69 Q 551.079 145.608 549.735 154.853 L 588.785 154.853 Z M 675.285 91.347 L 675.285 118.061 L 706.299 118.061 L 706.299 139.561 L 675.285 139.561 L 675.285 179.444 Q 675.285 186.001 677.892 188.312 Q 680.499 190.624 688.239 190.624 L 703.692 190.624 L 703.692 212.124 L 677.892 212.124 Q 660.101 212.124 652.656 204.706 Q 645.239 197.262 645.239 179.444 L 645.239 139.561 L 630.269 139.561 L 630.269 118.061 L 645.239 118.061 L 645.239 91.347 L 675.285 91.347 Z M 724.691 118.061 L 754.738 118.061 L 754.738 212.124 L 724.691 212.124 L 724.691 118.061 Z M 724.691 81.431 L 754.738 81.431 L 754.738 105.968 L 724.691 105.968 L 724.691 81.431 Z M 857.125 120.991 L 857.125 143.834 Q 847.477 139.803 838.473 137.788 Q 829.497 135.772 821.515 135.772 Q 812.942 135.772 808.777 137.922 Q 804.638 140.072 804.638 144.506 Q 804.638 148.134 807.782 150.069 Q 810.927 151.977 819.07 152.918 L 824.364 153.671 Q 847.477 156.6 855.432 163.319 Q 863.413 170.037 863.413 184.416 Q 863.413 199.439 852.314 207.017 Q 841.242 214.569 819.258 214.569 Q 809.932 214.569 799.962 213.091 Q 790.018 211.613 779.51 208.684 L 779.51 185.84 Q 788.513 190.194 797.946 192.398 Q 807.406 194.574 817.135 194.574 Q 825.977 194.574 830.411 192.156 Q 834.872 189.71 834.872 184.899 Q 834.872 180.868 831.808 178.906 Q 828.745 176.944 819.58 175.843 L 814.286 175.171 Q 794.21 172.644 786.148 165.845 Q 778.085 159.046 778.085 145.178 Q 778.085 130.236 788.325 123.033 Q 798.591 115.804 819.742 115.804 Q 828.073 115.804 837.21 117.067 Q 846.375 118.303 857.125 120.991 Z M 872.4 86.725 L 987.962 86.725 L 987.962 111.181 L 946.387 111.181 L 946.387 212.124 L 914.056 212.124 L 914.056 111.181 L 872.4 111.181 L 872.4 86.725 Z M 1025.308 137.304 Q 1015.311 137.304 1010.07 144.479 Q 1004.83 151.655 1004.83 165.173 Q 1004.83 178.691 1010.07 185.894 Q 1015.311 193.069 1025.308 193.069 Q 1035.145 193.069 1040.332 185.894 Q 1045.545 178.691 1045.545 165.173 Q 1045.545 151.655 1040.332 144.479 Q 1035.145 137.304 1025.308 137.304 Z M 1025.308 115.804 Q 1049.577 115.804 1063.229 128.919 Q 1076.882 142.007 1076.882 165.173 Q 1076.882 188.366 1063.229 201.481 Q 1049.577 214.569 1025.308 214.569 Q 1000.96 214.569 987.227 201.481 Q 973.493 188.366 973.493 165.173 Q 973.493 142.007 987.227 128.919 Q 1000.96 115.804 1025.308 115.804 Z M 1143.474 137.304 Q 1133.477 137.304 1128.236 144.479 Q 1122.996 151.655 1122.996 165.173 Q 1122.996 178.691 1128.236 185.894 Q 1133.477 193.069 1143.474 193.069 Q 1153.311 193.069 1158.498 185.894 Q 1163.711 178.691 1163.711 165.173 Q 1163.711 151.655 1158.498 144.479 Q 1153.311 137.304 1143.474 137.304 Z M 1143.474 115.804 Q 1167.743 115.804 1181.395 128.919 Q 1195.048 142.007 1195.048 165.173 Q 1195.048 188.366 1181.395 201.481 Q 1167.743 214.569 1143.474 214.569 Q 1119.126 214.569 1105.393 201.481 Q 1091.659 188.366 1091.659 165.173 Q 1091.659 142.007 1105.393 128.919 Q 1119.126 115.804 1143.474 115.804 Z M 1216.894 81.431 L 1246.94 81.431 L 1246.94 212.124 L 1216.894 212.124 L 1216.894 81.431 Z M 1349.327 120.991 L 1349.327 143.834 Q 1339.679 139.803 1330.676 137.788 Q 1321.699 135.772 1313.717 135.772 Q 1305.144 135.772 1300.979 137.922 Q 1296.84 140.072 1296.84 144.506 Q 1296.84 148.134 1299.984 150.069 Q 1303.129 151.977 1311.272 152.918 L 1316.566 153.671 Q 1339.679 156.6 1347.634 163.319 Q 1355.616 170.037 1355.616 184.416 Q 1355.616 199.439 1344.516 207.017 Q 1333.444 214.569 1311.46 214.569 Q 1302.134 214.569 1292.164 213.091 Q 1282.22 211.613 1271.712 208.684 L 1271.712 185.84 Q 1280.715 190.194 1290.148 192.398 Q 1299.608 194.574 1309.337 194.574 Q 1318.179 194.574 1322.613 192.156 Q 1327.074 189.71 1327.074 184.899 Q 1327.074 180.868 1324.011 178.906 Q 1320.947 176.944 1311.783 175.843 L 1306.488 175.171 Q 1286.412 172.644 1278.35 165.845 Q 1270.287 159.046 1270.287 145.178 Q 1270.287 130.236 1280.527 123.033 Q 1290.793 115.804 1311.944 115.804 Q 1320.275 115.804 1329.412 117.067 Q 1338.577 118.303 1349.327 120.991 Z" fill="url(#wordMain)" stroke="#313A48" stroke-width="2.2" stroke-linejoin="round"/>
    <path d="M 356 86.725 L 397.146 86.725 L 425.687 153.832 L 454.416 86.725 L 495.481 86.725 L 495.481 212.124 L 464.924 212.124 L 464.924 120.399 L 436.034 188.017 L 415.528 188.017 L 386.637 120.399 L 386.637 212.124 L 356 212.124 L 356 86.725 Z M 619.691 164.851 L 619.691 173.397 L 549.413 173.397 Q 550.488 183.986 557.045 189.28 Q 563.603 194.574 575.347 194.574 Q 584.834 194.574 594.778 191.752 Q 604.748 188.931 615.256 183.233 L 615.256 206.399 Q 604.587 210.431 593.918 212.5 Q 583.248 214.569 572.579 214.569 Q 547.048 214.569 532.885 201.589 Q 518.748 188.608 518.748 165.173 Q 518.748 142.168 532.643 128.999 Q 546.537 115.804 570.913 115.804 Q 593.085 115.804 606.388 129.161 Q 619.691 142.491 619.691 164.851 Z M 588.785 154.853 Q 588.785 146.28 583.786 141.039 Q 578.787 135.772 570.725 135.772 Q 561.99 135.772 556.535 140.69 Q 551.079 145.608 549.735 154.853 L 588.785 154.853 Z M 675.285 91.347 L 675.285 118.061 L 706.299 118.061 L 706.299 139.561 L 675.285 139.561 L 675.285 179.444 Q 675.285 186.001 677.892 188.312 Q 680.499 190.624 688.239 190.624 L 703.692 190.624 L 703.692 212.124 L 677.892 212.124 Q 660.101 212.124 652.656 204.706 Q 645.239 197.262 645.239 179.444 L 645.239 139.561 L 630.269 139.561 L 630.269 118.061 L 645.239 118.061 L 645.239 91.347 L 675.285 91.347 Z M 724.691 118.061 L 754.738 118.061 L 754.738 212.124 L 724.691 212.124 L 724.691 118.061 Z M 724.691 81.431 L 754.738 81.431 L 754.738 105.968 L 724.691 105.968 L 724.691 81.431 Z M 857.125 120.991 L 857.125 143.834 Q 847.477 139.803 838.473 137.788 Q 829.497 135.772 821.515 135.772 Q 812.942 135.772 808.777 137.922 Q 804.638 140.072 804.638 144.506 Q 804.638 148.134 807.782 150.069 Q 810.927 151.977 819.07 152.918 L 824.364 153.671 Q 847.477 156.6 855.432 163.319 Q 863.413 170.037 863.413 184.416 Q 863.413 199.439 852.314 207.017 Q 841.242 214.569 819.258 214.569 Q 809.932 214.569 799.962 213.091 Q 790.018 211.613 779.51 208.684 L 779.51 185.84 Q 788.513 190.194 797.946 192.398 Q 807.406 194.574 817.135 194.574 Q 825.977 194.574 830.411 192.156 Q 834.872 189.71 834.872 184.899 Q 834.872 180.868 831.808 178.906 Q 828.745 176.944 819.58 175.843 L 814.286 175.171 Q 794.21 172.644 786.148 165.845 Q 778.085 159.046 778.085 145.178 Q 778.085 130.236 788.325 123.033 Q 798.591 115.804 819.742 115.804 Q 828.073 115.804 837.21 117.067 Q 846.375 118.303 857.125 120.991 Z M 872.4 86.725 L 987.962 86.725 L 987.962 111.181 L 946.387 111.181 L 946.387 212.124 L 914.056 212.124 L 914.056 111.181 L 872.4 111.181 L 872.4 86.725 Z M 1025.308 137.304 Q 1015.311 137.304 1010.07 144.479 Q 1004.83 151.655 1004.83 165.173 Q 1004.83 178.691 1010.07 185.894 Q 1015.311 193.069 1025.308 193.069 Q 1035.145 193.069 1040.332 185.894 Q 1045.545 178.691 1045.545 165.173 Q 1045.545 151.655 1040.332 144.479 Q 1035.145 137.304 1025.308 137.304 Z M 1025.308 115.804 Q 1049.577 115.804 1063.229 128.919 Q 1076.882 142.007 1076.882 165.173 Q 1076.882 188.366 1063.229 201.481 Q 1049.577 214.569 1025.308 214.569 Q 1000.96 214.569 987.227 201.481 Q 973.493 188.366 973.493 165.173 Q 973.493 142.007 987.227 128.919 Q 1000.96 115.804 1025.308 115.804 Z M 1143.474 137.304 Q 1133.477 137.304 1128.236 144.479 Q 1122.996 151.655 1122.996 165.173 Q 1122.996 178.691 1128.236 185.894 Q 1133.477 193.069 1143.474 193.069 Q 1153.311 193.069 1158.498 185.894 Q 1163.711 178.691 1163.711 165.173 Q 1163.711 151.655 1158.498 144.479 Q 1153.311 137.304 1143.474 137.304 Z M 1143.474 115.804 Q 1167.743 115.804 1181.395 128.919 Q 1195.048 142.007 1195.048 165.173 Q 1195.048 188.366 1181.395 201.481 Q 1167.743 214.569 1143.474 214.569 Q 1119.126 214.569 1105.393 201.481 Q 1091.659 188.366 1091.659 165.173 Q 1091.659 142.007 1105.393 128.919 Q 1119.126 115.804 1143.474 115.804 Z M 1216.894 81.431 L 1246.94 81.431 L 1246.94 212.124 L 1216.894 212.124 L 1216.894 81.431 Z M 1349.327 120.991 L 1349.327 143.834 Q 1339.679 139.803 1330.676 137.788 Q 1321.699 135.772 1313.717 135.772 Q 1305.144 135.772 1300.979 137.922 Q 1296.84 140.072 1296.84 144.506 Q 1296.84 148.134 1299.984 150.069 Q 1303.129 151.977 1311.272 152.918 L 1316.566 153.671 Q 1339.679 156.6 1347.634 163.319 Q 1355.616 170.037 1355.616 184.416 Q 1355.616 199.439 1344.516 207.017 Q 1333.444 214.569 1311.46 214.569 Q 1302.134 214.569 1292.164 213.091 Q 1282.22 211.613 1271.712 208.684 L 1271.712 185.84 Q 1280.715 190.194 1290.148 192.398 Q 1299.608 194.574 1309.337 194.574 Q 1318.179 194.574 1322.613 192.156 Q 1327.074 189.71 1327.074 184.899 Q 1327.074 180.868 1324.011 178.906 Q 1320.947 176.944 1311.783 175.843 L 1306.488 175.171 Q 1286.412 172.644 1278.35 165.845 Q 1270.287 159.046 1270.287 145.178 Q 1270.287 130.236 1280.527 123.033 Q 1290.793 115.804 1311.944 115.804 Q 1320.275 115.804 1329.412 117.067 Q 1338.577 118.303 1349.327 120.991 Z" fill="none" stroke="url(#wordEdge)" stroke-width="3.2" stroke-linejoin="round" opacity="0.65"/>
  </g>
</svg>
